<mxfile host="app.diagrams.net" agent="Mozilla/5.0 (Windows NT 10.0; Win64; x64) AppleWebKit/537.36 (KHTML, like Gecko) Chrome/135.0.0.0 Safari/537.36" version="26.2.13">
  <diagram name="Page-1" id="VHy5btwFp9xQQAj88qH7">
    <mxGraphModel dx="1392" dy="1803" grid="1" gridSize="10" guides="1" tooltips="1" connect="1" arrows="1" fold="1" page="1" pageScale="1" pageWidth="850" pageHeight="1100" math="0" shadow="0">
      <root>
        <mxCell id="0" />
        <mxCell id="1" parent="0" />
        <mxCell id="mg__9qmA6hPqHbvAzffK-1" value="Travelers&amp;amp;Volunteers" style="shape=umlActor;html=1;verticalLabelPosition=bottom;verticalAlign=top;align=center;" parent="1" vertex="1">
          <mxGeometry x="40" y="20" width="90" height="120" as="geometry" />
        </mxCell>
        <mxCell id="mg__9qmA6hPqHbvAzffK-3" value="Hosts" style="shape=umlActor;html=1;verticalLabelPosition=bottom;verticalAlign=top;align=center;" parent="1" vertex="1">
          <mxGeometry x="40" y="260" width="100" height="110" as="geometry" />
        </mxCell>
        <mxCell id="mg__9qmA6hPqHbvAzffK-6" value="Register" style="ellipse;whiteSpace=wrap;html=1;" parent="1" vertex="1">
          <mxGeometry x="250" y="80" width="120" height="40" as="geometry" />
        </mxCell>
        <mxCell id="mg__9qmA6hPqHbvAzffK-9" value="" style="edgeStyle=none;html=1;endArrow=none;verticalAlign=bottom;rounded=0;" parent="1" edge="1">
          <mxGeometry width="160" relative="1" as="geometry">
            <mxPoint x="240" y="610" as="sourcePoint" />
            <mxPoint x="640" y="610" as="targetPoint" />
          </mxGeometry>
        </mxCell>
        <mxCell id="mg__9qmA6hPqHbvAzffK-10" value="" style="edgeStyle=none;html=1;endArrow=none;verticalAlign=bottom;rounded=0;" parent="1" edge="1">
          <mxGeometry width="160" relative="1" as="geometry">
            <mxPoint x="240" y="610" as="sourcePoint" />
            <mxPoint x="240" y="-140" as="targetPoint" />
          </mxGeometry>
        </mxCell>
        <mxCell id="mg__9qmA6hPqHbvAzffK-11" value="" style="edgeStyle=none;html=1;endArrow=none;verticalAlign=bottom;rounded=0;" parent="1" edge="1">
          <mxGeometry width="160" relative="1" as="geometry">
            <mxPoint x="640" y="610" as="sourcePoint" />
            <mxPoint x="640" y="-140" as="targetPoint" />
          </mxGeometry>
        </mxCell>
        <mxCell id="mg__9qmA6hPqHbvAzffK-13" value="" style="edgeStyle=none;html=1;endArrow=none;verticalAlign=bottom;rounded=0;" parent="1" edge="1">
          <mxGeometry width="160" relative="1" as="geometry">
            <mxPoint x="237.5" y="-140" as="sourcePoint" />
            <mxPoint x="640" y="-140" as="targetPoint" />
          </mxGeometry>
        </mxCell>
        <mxCell id="mg__9qmA6hPqHbvAzffK-16" value="" style="edgeStyle=none;html=1;endArrow=none;verticalAlign=bottom;rounded=0;entryX=0;entryY=0.5;entryDx=0;entryDy=0;exitX=1;exitY=1;exitDx=0;exitDy=0;exitPerimeter=0;" parent="1" target="mg__9qmA6hPqHbvAzffK-6" edge="1" source="mg__9qmA6hPqHbvAzffK-1">
          <mxGeometry width="160" relative="1" as="geometry">
            <mxPoint x="120" y="109.5" as="sourcePoint" />
            <mxPoint x="280" y="109.5" as="targetPoint" />
          </mxGeometry>
        </mxCell>
        <mxCell id="mg__9qmA6hPqHbvAzffK-17" value="" style="edgeStyle=none;html=1;endArrow=none;verticalAlign=bottom;rounded=0;entryX=0;entryY=0.5;entryDx=0;entryDy=0;exitX=0.75;exitY=0.1;exitDx=0;exitDy=0;exitPerimeter=0;" parent="1" target="mg__9qmA6hPqHbvAzffK-6" edge="1" source="mg__9qmA6hPqHbvAzffK-3">
          <mxGeometry width="160" relative="1" as="geometry">
            <mxPoint x="130" y="292.25" as="sourcePoint" />
            <mxPoint x="330" y="287.75" as="targetPoint" />
          </mxGeometry>
        </mxCell>
        <mxCell id="mg__9qmA6hPqHbvAzffK-18" value="Look for&amp;nbsp;&lt;span style=&quot;font-size: 11pt; line-height: 115%; color: rgb(13, 13, 13);&quot;&gt;accommodation&lt;/span&gt;" style="ellipse;whiteSpace=wrap;html=1;" parent="1" vertex="1">
          <mxGeometry x="242.5" y="-40" width="127.5" height="40" as="geometry" />
        </mxCell>
        <mxCell id="mg__9qmA6hPqHbvAzffK-19" value="" style="edgeStyle=none;html=1;endArrow=none;verticalAlign=bottom;rounded=0;entryX=0.02;entryY=0.36;entryDx=0;entryDy=0;entryPerimeter=0;exitX=0.5;exitY=0.5;exitDx=0;exitDy=0;exitPerimeter=0;" parent="1" target="mg__9qmA6hPqHbvAzffK-18" edge="1" source="mg__9qmA6hPqHbvAzffK-1">
          <mxGeometry width="160" relative="1" as="geometry">
            <mxPoint x="120" y="120" as="sourcePoint" />
            <mxPoint x="320" y="115.5" as="targetPoint" />
          </mxGeometry>
        </mxCell>
        <mxCell id="mg__9qmA6hPqHbvAzffK-20" value="&lt;span style=&quot;font-size: 11pt; line-height: 115%; color: rgb(13, 13, 13);&quot;&gt;Create&lt;/span&gt;&lt;div&gt;&lt;span style=&quot;font-size: 11pt; line-height: 115%; color: rgb(13, 13, 13);&quot;&gt;&amp;nbsp;opportunity list&lt;/span&gt;&lt;/div&gt;" style="ellipse;whiteSpace=wrap;html=1;" parent="1" vertex="1">
          <mxGeometry x="235.89" y="385" width="120" height="40" as="geometry" />
        </mxCell>
        <mxCell id="mg__9qmA6hPqHbvAzffK-21" value="" style="edgeStyle=none;html=1;endArrow=none;verticalAlign=bottom;rounded=0;entryX=0;entryY=0.5;entryDx=0;entryDy=0;exitX=0.5;exitY=0.5;exitDx=0;exitDy=0;exitPerimeter=0;" parent="1" target="mg__9qmA6hPqHbvAzffK-20" edge="1" source="mg__9qmA6hPqHbvAzffK-3">
          <mxGeometry width="160" relative="1" as="geometry">
            <mxPoint x="150" y="310" as="sourcePoint" />
            <mxPoint x="338" y="129" as="targetPoint" />
          </mxGeometry>
        </mxCell>
        <mxCell id="mg__9qmA6hPqHbvAzffK-22" value="View/Respond&lt;div&gt;&amp;nbsp;volunteer applications&lt;/div&gt;" style="ellipse;whiteSpace=wrap;html=1;rotation=0;" parent="1" vertex="1">
          <mxGeometry x="233.39" y="475" width="125" height="40" as="geometry" />
        </mxCell>
        <mxCell id="mg__9qmA6hPqHbvAzffK-25" value="Update&lt;div&gt;&amp;nbsp;opportunities status&lt;/div&gt;" style="ellipse;whiteSpace=wrap;html=1;" parent="1" vertex="1">
          <mxGeometry x="238.39" y="435" width="110" height="40" as="geometry" />
        </mxCell>
        <mxCell id="mg__9qmA6hPqHbvAzffK-26" value="" style="edgeStyle=none;html=1;endArrow=none;verticalAlign=bottom;rounded=0;exitX=0.5;exitY=0.5;exitDx=0;exitDy=0;exitPerimeter=0;" parent="1" target="mg__9qmA6hPqHbvAzffK-24" edge="1" source="mg__9qmA6hPqHbvAzffK-1">
          <mxGeometry width="160" relative="1" as="geometry">
            <mxPoint x="90" y="80" as="sourcePoint" />
            <mxPoint x="333" y="195" as="targetPoint" />
          </mxGeometry>
        </mxCell>
        <mxCell id="mg__9qmA6hPqHbvAzffK-27" value="" style="edgeStyle=none;html=1;endArrow=none;verticalAlign=bottom;rounded=0;entryX=0;entryY=0;entryDx=0;entryDy=0;exitX=0.5;exitY=0.5;exitDx=0;exitDy=0;exitPerimeter=0;" parent="1" target="mg__9qmA6hPqHbvAzffK-25" edge="1" source="mg__9qmA6hPqHbvAzffK-3">
          <mxGeometry width="160" relative="1" as="geometry">
            <mxPoint x="150" y="312.25" as="sourcePoint" />
            <mxPoint x="330" y="295" as="targetPoint" />
          </mxGeometry>
        </mxCell>
        <mxCell id="mg__9qmA6hPqHbvAzffK-28" value="Communicate" style="ellipse;whiteSpace=wrap;html=1;" parent="1" vertex="1">
          <mxGeometry x="260" y="170" width="120" height="40" as="geometry" />
        </mxCell>
        <mxCell id="mg__9qmA6hPqHbvAzffK-29" value="" style="edgeStyle=none;html=1;endArrow=none;verticalAlign=bottom;rounded=0;entryX=0;entryY=0.5;entryDx=0;entryDy=0;exitX=0.75;exitY=0.1;exitDx=0;exitDy=0;exitPerimeter=0;" parent="1" target="mg__9qmA6hPqHbvAzffK-28" edge="1" source="mg__9qmA6hPqHbvAzffK-3">
          <mxGeometry width="160" relative="1" as="geometry">
            <mxPoint x="150" y="312.25" as="sourcePoint" />
            <mxPoint x="350" y="435" as="targetPoint" />
          </mxGeometry>
        </mxCell>
        <mxCell id="mg__9qmA6hPqHbvAzffK-30" value="" style="edgeStyle=none;html=1;endArrow=none;verticalAlign=bottom;rounded=0;exitX=1;exitY=1;exitDx=0;exitDy=0;exitPerimeter=0;entryX=0;entryY=0.5;entryDx=0;entryDy=0;" parent="1" target="mg__9qmA6hPqHbvAzffK-28" edge="1" source="mg__9qmA6hPqHbvAzffK-1">
          <mxGeometry width="160" relative="1" as="geometry">
            <mxPoint x="85" y="230" as="sourcePoint" />
            <mxPoint x="342" y="249" as="targetPoint" />
          </mxGeometry>
        </mxCell>
        <mxCell id="8gyLErTpw2jjx-ygtuql-1" value="Create/Edit&amp;nbsp;&lt;div&gt;Profile&lt;/div&gt;" style="ellipse;whiteSpace=wrap;html=1;" vertex="1" parent="1">
          <mxGeometry x="270" y="220" width="120" height="40" as="geometry" />
        </mxCell>
        <mxCell id="8gyLErTpw2jjx-ygtuql-2" value="" style="edgeStyle=none;html=1;endArrow=none;verticalAlign=bottom;rounded=0;entryX=0;entryY=0.5;entryDx=0;entryDy=0;exitX=1;exitY=1;exitDx=0;exitDy=0;exitPerimeter=0;" edge="1" parent="1" source="mg__9qmA6hPqHbvAzffK-1" target="8gyLErTpw2jjx-ygtuql-1">
          <mxGeometry width="160" relative="1" as="geometry">
            <mxPoint x="90" y="80" as="sourcePoint" />
            <mxPoint x="260" y="135" as="targetPoint" />
          </mxGeometry>
        </mxCell>
        <mxCell id="8gyLErTpw2jjx-ygtuql-4" value="" style="edgeStyle=none;html=1;endArrow=none;verticalAlign=bottom;rounded=0;entryX=0;entryY=0.5;entryDx=0;entryDy=0;exitX=0.75;exitY=0.1;exitDx=0;exitDy=0;exitPerimeter=0;" edge="1" parent="1" source="mg__9qmA6hPqHbvAzffK-3" target="8gyLErTpw2jjx-ygtuql-1">
          <mxGeometry width="160" relative="1" as="geometry">
            <mxPoint x="140" y="302.25" as="sourcePoint" />
            <mxPoint x="268" y="149" as="targetPoint" />
          </mxGeometry>
        </mxCell>
        <mxCell id="8gyLErTpw2jjx-ygtuql-5" value="Receive notifications" style="ellipse;whiteSpace=wrap;html=1;rotation=0;" vertex="1" parent="1">
          <mxGeometry x="243.39" y="515" width="105" height="40" as="geometry" />
        </mxCell>
        <mxCell id="8gyLErTpw2jjx-ygtuql-6" value="" style="edgeStyle=none;html=1;endArrow=none;verticalAlign=bottom;rounded=0;entryX=0;entryY=0.5;entryDx=0;entryDy=0;exitX=0.5;exitY=0.5;exitDx=0;exitDy=0;exitPerimeter=0;" edge="1" parent="1" source="mg__9qmA6hPqHbvAzffK-3" target="mg__9qmA6hPqHbvAzffK-22">
          <mxGeometry width="160" relative="1" as="geometry">
            <mxPoint x="100" y="325" as="sourcePoint" />
            <mxPoint x="521" y="340" as="targetPoint" />
          </mxGeometry>
        </mxCell>
        <mxCell id="8gyLErTpw2jjx-ygtuql-8" value="" style="edgeStyle=none;html=1;endArrow=none;verticalAlign=bottom;rounded=0;entryX=0;entryY=0;entryDx=0;entryDy=0;exitX=0.5;exitY=0.5;exitDx=0;exitDy=0;exitPerimeter=0;" edge="1" parent="1" source="mg__9qmA6hPqHbvAzffK-3" target="8gyLErTpw2jjx-ygtuql-5">
          <mxGeometry width="160" relative="1" as="geometry">
            <mxPoint x="100" y="325" as="sourcePoint" />
            <mxPoint x="260" y="365" as="targetPoint" />
          </mxGeometry>
        </mxCell>
        <mxCell id="8gyLErTpw2jjx-ygtuql-9" value="Analyze profile traffic" style="ellipse;whiteSpace=wrap;html=1;rotation=0;" vertex="1" parent="1">
          <mxGeometry x="245.17000000000002" y="565" width="105" height="30" as="geometry" />
        </mxCell>
        <mxCell id="8gyLErTpw2jjx-ygtuql-10" value="" style="edgeStyle=none;html=1;endArrow=none;verticalAlign=bottom;rounded=0;exitX=0.5;exitY=0.5;exitDx=0;exitDy=0;exitPerimeter=0;entryX=0;entryY=0;entryDx=0;entryDy=0;" edge="1" parent="1" source="mg__9qmA6hPqHbvAzffK-3" target="8gyLErTpw2jjx-ygtuql-9">
          <mxGeometry width="160" relative="1" as="geometry">
            <mxPoint x="100" y="325" as="sourcePoint" />
            <mxPoint x="280" y="640" as="targetPoint" />
          </mxGeometry>
        </mxCell>
        <mxCell id="8gyLErTpw2jjx-ygtuql-11" value="&amp;nbsp;Manage booking information&amp;nbsp;" style="ellipse;whiteSpace=wrap;html=1;rotation=0;" vertex="1" parent="1">
          <mxGeometry x="235.89" y="340" width="120" height="30" as="geometry" />
        </mxCell>
        <mxCell id="8gyLErTpw2jjx-ygtuql-12" value="" style="edgeStyle=none;html=1;endArrow=none;verticalAlign=bottom;rounded=0;entryX=0.083;entryY=0.309;entryDx=0;entryDy=0;exitX=0.5;exitY=0.5;exitDx=0;exitDy=0;exitPerimeter=0;entryPerimeter=0;" edge="1" parent="1" source="mg__9qmA6hPqHbvAzffK-3" target="8gyLErTpw2jjx-ygtuql-11">
          <mxGeometry width="160" relative="1" as="geometry">
            <mxPoint x="100" y="325" as="sourcePoint" />
            <mxPoint x="255" y="404" as="targetPoint" />
          </mxGeometry>
        </mxCell>
        <mxCell id="8gyLErTpw2jjx-ygtuql-13" value="Search for hosts" style="ellipse;whiteSpace=wrap;html=1;rotation=0;" vertex="1" parent="1">
          <mxGeometry x="240" width="111.78" height="30" as="geometry" />
        </mxCell>
        <mxCell id="8gyLErTpw2jjx-ygtuql-14" value="" style="edgeStyle=none;html=1;endArrow=none;verticalAlign=bottom;rounded=0;entryX=0;entryY=0.5;entryDx=0;entryDy=0;exitX=0.5;exitY=0.5;exitDx=0;exitDy=0;exitPerimeter=0;" edge="1" parent="1" source="mg__9qmA6hPqHbvAzffK-1" target="8gyLErTpw2jjx-ygtuql-13">
          <mxGeometry width="160" relative="1" as="geometry">
            <mxPoint x="90" y="80" as="sourcePoint" />
            <mxPoint x="260" y="55" as="targetPoint" />
          </mxGeometry>
        </mxCell>
        <mxCell id="8gyLErTpw2jjx-ygtuql-16" value="&lt;div&gt;Filter search&lt;/div&gt;&lt;div&gt;&amp;nbsp;results&lt;/div&gt;" style="ellipse;whiteSpace=wrap;html=1;" vertex="1" parent="1">
          <mxGeometry x="260" y="120" width="120" height="40" as="geometry" />
        </mxCell>
        <mxCell id="8gyLErTpw2jjx-ygtuql-17" value="" style="edgeStyle=none;html=1;endArrow=none;verticalAlign=bottom;rounded=0;entryX=0;entryY=0.5;entryDx=0;entryDy=0;exitX=0.75;exitY=0.1;exitDx=0;exitDy=0;exitPerimeter=0;" edge="1" parent="1" source="mg__9qmA6hPqHbvAzffK-3" target="8gyLErTpw2jjx-ygtuql-16">
          <mxGeometry width="160" relative="1" as="geometry">
            <mxPoint x="125" y="281" as="sourcePoint" />
            <mxPoint x="296" y="149" as="targetPoint" />
          </mxGeometry>
        </mxCell>
        <mxCell id="8gyLErTpw2jjx-ygtuql-18" value="" style="edgeStyle=none;html=1;endArrow=none;verticalAlign=bottom;rounded=0;exitX=1;exitY=1;exitDx=0;exitDy=0;exitPerimeter=0;" edge="1" parent="1" source="mg__9qmA6hPqHbvAzffK-1" target="8gyLErTpw2jjx-ygtuql-16">
          <mxGeometry width="160" relative="1" as="geometry">
            <mxPoint x="95" y="90" as="sourcePoint" />
            <mxPoint x="290" y="141" as="targetPoint" />
          </mxGeometry>
        </mxCell>
        <mxCell id="8gyLErTpw2jjx-ygtuql-19" value="&amp;nbsp;Message host before applying" style="ellipse;whiteSpace=wrap;html=1;" vertex="1" parent="1">
          <mxGeometry x="250" y="-80" width="127.5" height="40" as="geometry" />
        </mxCell>
        <mxCell id="8gyLErTpw2jjx-ygtuql-20" value="" style="edgeStyle=none;html=1;endArrow=none;verticalAlign=bottom;rounded=0;entryX=0;entryY=0.5;entryDx=0;entryDy=0;exitX=0.5;exitY=0.5;exitDx=0;exitDy=0;exitPerimeter=0;" edge="1" parent="1" source="mg__9qmA6hPqHbvAzffK-1" target="8gyLErTpw2jjx-ygtuql-19">
          <mxGeometry width="160" relative="1" as="geometry">
            <mxPoint x="95" y="90" as="sourcePoint" />
            <mxPoint x="255" y="-16" as="targetPoint" />
          </mxGeometry>
        </mxCell>
        <mxCell id="8gyLErTpw2jjx-ygtuql-21" value="Write &amp;amp; Read&amp;nbsp;&lt;div&gt;Reviews&lt;/div&gt;" style="ellipse;whiteSpace=wrap;html=1;" vertex="1" parent="1">
          <mxGeometry x="242.5" y="-120" width="127.5" height="40" as="geometry" />
        </mxCell>
        <mxCell id="8gyLErTpw2jjx-ygtuql-22" value="" style="edgeStyle=none;html=1;endArrow=none;verticalAlign=bottom;rounded=0;entryX=0;entryY=0.5;entryDx=0;entryDy=0;exitX=0.5;exitY=0.5;exitDx=0;exitDy=0;exitPerimeter=0;" edge="1" parent="1" source="mg__9qmA6hPqHbvAzffK-1" target="8gyLErTpw2jjx-ygtuql-21">
          <mxGeometry width="160" relative="1" as="geometry">
            <mxPoint x="95" y="90" as="sourcePoint" />
            <mxPoint x="245" y="-50" as="targetPoint" />
          </mxGeometry>
        </mxCell>
        <mxCell id="8gyLErTpw2jjx-ygtuql-23" value="Pay Fees" style="ellipse;whiteSpace=wrap;html=1;" vertex="1" parent="1">
          <mxGeometry x="390" y="-30" width="127.5" height="40" as="geometry" />
        </mxCell>
        <mxCell id="8gyLErTpw2jjx-ygtuql-24" value="" style="edgeStyle=none;html=1;endArrow=none;verticalAlign=bottom;rounded=0;entryX=0.052;entryY=0.852;entryDx=0;entryDy=0;exitX=0.5;exitY=0.5;exitDx=0;exitDy=0;exitPerimeter=0;entryPerimeter=0;" edge="1" parent="1" source="mg__9qmA6hPqHbvAzffK-1" target="8gyLErTpw2jjx-ygtuql-23">
          <mxGeometry width="160" relative="1" as="geometry">
            <mxPoint x="95" y="90" as="sourcePoint" />
            <mxPoint x="241" y="-90" as="targetPoint" />
          </mxGeometry>
        </mxCell>
        <mxCell id="8gyLErTpw2jjx-ygtuql-25" value="&lt;div&gt;&amp;nbsp;Monitor profile analytics&amp;nbsp;&lt;/div&gt;" style="ellipse;whiteSpace=wrap;html=1;" vertex="1" parent="1">
          <mxGeometry x="242.5" y="295" width="120" height="40" as="geometry" />
        </mxCell>
        <mxCell id="8gyLErTpw2jjx-ygtuql-26" value="" style="edgeStyle=none;html=1;endArrow=none;verticalAlign=bottom;rounded=0;entryX=0;entryY=0.5;entryDx=0;entryDy=0;exitX=0.75;exitY=0.1;exitDx=0;exitDy=0;exitPerimeter=0;" edge="1" parent="1" source="mg__9qmA6hPqHbvAzffK-3" target="8gyLErTpw2jjx-ygtuql-25">
          <mxGeometry width="160" relative="1" as="geometry">
            <mxPoint x="125" y="281" as="sourcePoint" />
            <mxPoint x="280" y="250" as="targetPoint" />
          </mxGeometry>
        </mxCell>
        <mxCell id="8gyLErTpw2jjx-ygtuql-28" value="&lt;div&gt;&amp;nbsp;Translate system interface&lt;/div&gt;" style="ellipse;whiteSpace=wrap;html=1;" vertex="1" parent="1">
          <mxGeometry x="513.75" y="-5" width="120" height="40" as="geometry" />
        </mxCell>
        <mxCell id="8gyLErTpw2jjx-ygtuql-31" value="&lt;div&gt;&amp;nbsp;Receive applications response&lt;/div&gt;" style="ellipse;whiteSpace=wrap;html=1;" vertex="1" parent="1">
          <mxGeometry x="365" y="60" width="127.5" height="40" as="geometry" />
        </mxCell>
        <mxCell id="8gyLErTpw2jjx-ygtuql-33" value="" style="edgeStyle=none;html=1;endArrow=none;verticalAlign=bottom;rounded=0;entryX=0.032;entryY=0.295;entryDx=0;entryDy=0;exitX=0.556;exitY=0.417;exitDx=0;exitDy=0;exitPerimeter=0;entryPerimeter=0;" edge="1" parent="1" source="mg__9qmA6hPqHbvAzffK-1" target="8gyLErTpw2jjx-ygtuql-31">
          <mxGeometry width="160" relative="1" as="geometry">
            <mxPoint x="95" y="90" as="sourcePoint" />
            <mxPoint x="241" y="-116" as="targetPoint" />
          </mxGeometry>
        </mxCell>
        <mxCell id="8gyLErTpw2jjx-ygtuql-34" value="System" style="shape=umlActor;html=1;verticalLabelPosition=bottom;verticalAlign=top;align=center;" vertex="1" parent="1">
          <mxGeometry x="710" y="210" width="90" height="120" as="geometry" />
        </mxCell>
        <mxCell id="8gyLErTpw2jjx-ygtuql-35" value="Search for hosts" style="ellipse;whiteSpace=wrap;html=1;rotation=0;" vertex="1" parent="1">
          <mxGeometry x="395.72" y="20" width="111.78" height="30" as="geometry" />
        </mxCell>
        <mxCell id="8gyLErTpw2jjx-ygtuql-36" value="" style="edgeStyle=none;html=1;endArrow=none;verticalAlign=bottom;rounded=0;entryX=0;entryY=0.5;entryDx=0;entryDy=0;exitX=0.5;exitY=0.5;exitDx=0;exitDy=0;exitPerimeter=0;" edge="1" parent="1" source="mg__9qmA6hPqHbvAzffK-24" target="8gyLErTpw2jjx-ygtuql-35">
          <mxGeometry width="160" relative="1" as="geometry">
            <mxPoint x="95" y="90" as="sourcePoint" />
            <mxPoint x="250" y="25" as="targetPoint" />
          </mxGeometry>
        </mxCell>
        <mxCell id="8gyLErTpw2jjx-ygtuql-37" value="" style="edgeStyle=none;html=1;endArrow=none;verticalAlign=bottom;rounded=0;entryX=0;entryY=0.5;entryDx=0;entryDy=0;exitX=0.5;exitY=0.5;exitDx=0;exitDy=0;exitPerimeter=0;" edge="1" parent="1" source="mg__9qmA6hPqHbvAzffK-1" target="mg__9qmA6hPqHbvAzffK-24">
          <mxGeometry width="160" relative="1" as="geometry">
            <mxPoint x="85" y="80" as="sourcePoint" />
            <mxPoint x="396" y="35" as="targetPoint" />
          </mxGeometry>
        </mxCell>
        <mxCell id="mg__9qmA6hPqHbvAzffK-24" value="Search/Filter&amp;nbsp;&lt;div&gt;&lt;span style=&quot;font-size: 11pt; line-height: 115%; color: rgb(13, 13, 13);&quot;&gt;accommodations&lt;/span&gt;&lt;/div&gt;" style="ellipse;whiteSpace=wrap;html=1;" parent="1" vertex="1">
          <mxGeometry x="237.5" y="30" width="130" height="30" as="geometry" />
        </mxCell>
        <mxCell id="8gyLErTpw2jjx-ygtuql-38" value="&lt;div&gt;Use multi language&lt;/div&gt;" style="ellipse;whiteSpace=wrap;html=1;" vertex="1" parent="1">
          <mxGeometry x="506.25" y="85" width="120" height="40" as="geometry" />
        </mxCell>
        <mxCell id="8gyLErTpw2jjx-ygtuql-39" value="&lt;div style=&quot;text-align: start;&quot;&gt;&lt;div&gt;Encrypt user data&amp;nbsp;&lt;/div&gt;&lt;/div&gt;" style="ellipse;whiteSpace=wrap;html=1;" vertex="1" parent="1">
          <mxGeometry x="506.25" y="135" width="120" height="40" as="geometry" />
        </mxCell>
        <mxCell id="8gyLErTpw2jjx-ygtuql-40" value="&lt;div style=&quot;text-align: start;&quot;&gt;&lt;div&gt;Process payment&amp;nbsp;&lt;/div&gt;&lt;/div&gt;" style="ellipse;whiteSpace=wrap;html=1;" vertex="1" parent="1">
          <mxGeometry x="506.25" y="185" width="120" height="40" as="geometry" />
        </mxCell>
        <mxCell id="8gyLErTpw2jjx-ygtuql-41" value="&lt;div style=&quot;text-align: start;&quot;&gt;&lt;div&gt;Send automated&amp;nbsp;&lt;/div&gt;&lt;div&gt;booking emails&lt;/div&gt;&lt;/div&gt;" style="ellipse;whiteSpace=wrap;html=1;" vertex="1" parent="1">
          <mxGeometry x="493.75" y="235" width="132.5" height="40" as="geometry" />
        </mxCell>
        <mxCell id="8gyLErTpw2jjx-ygtuql-42" value="&lt;div style=&quot;text-align: start;&quot;&gt;&lt;div&gt;&amp;nbsp;Send&amp;nbsp;&lt;span style=&quot;background-color: transparent; color: light-dark(rgb(0, 0, 0), rgb(255, 255, 255));&quot;&gt;automated reminders&amp;nbsp;&lt;/span&gt;&lt;/div&gt;&lt;/div&gt;" style="ellipse;whiteSpace=wrap;html=1;" vertex="1" parent="1">
          <mxGeometry x="473.75" y="275" width="160" height="40" as="geometry" />
        </mxCell>
        <mxCell id="8gyLErTpw2jjx-ygtuql-43" value="&lt;div style=&quot;text-align: start;&quot;&gt;Provide mobile&amp;nbsp;&lt;/div&gt;&lt;div style=&quot;text-align: start;&quot;&gt;-responsive design&lt;/div&gt;" style="ellipse;whiteSpace=wrap;html=1;" vertex="1" parent="1">
          <mxGeometry x="466.25" y="370" width="160" height="40" as="geometry" />
        </mxCell>
        <mxCell id="8gyLErTpw2jjx-ygtuql-44" value="&lt;div style=&quot;text-align: start;&quot;&gt;Restrict incomplete profile&lt;/div&gt;&lt;div style=&quot;text-align: start;&quot;&gt;&lt;span style=&quot;white-space: pre;&quot;&gt;&#x9;&lt;/span&gt;&amp;nbsp; (searching)&lt;/div&gt;" style="ellipse;whiteSpace=wrap;html=1;" vertex="1" parent="1">
          <mxGeometry x="473.75" y="420" width="160" height="50" as="geometry" />
        </mxCell>
        <mxCell id="8gyLErTpw2jjx-ygtuql-45" value="&lt;div style=&quot;text-align: start;&quot;&gt;&lt;div&gt;Match traveler&amp;nbsp;&lt;/div&gt;&lt;div&gt;to host based on skills&amp;nbsp;&lt;/div&gt;&lt;/div&gt;" style="ellipse;whiteSpace=wrap;html=1;" vertex="1" parent="1">
          <mxGeometry x="466.25" y="550" width="160" height="50" as="geometry" />
        </mxCell>
        <mxCell id="8gyLErTpw2jjx-ygtuql-46" value="&lt;div style=&quot;text-align: start;&quot;&gt;Restrict incomplete profile&lt;/div&gt;&lt;div style=&quot;text-align: start;&quot;&gt;&lt;span style=&quot;white-space: pre;&quot;&gt;&#x9;&lt;/span&gt;&amp;nbsp; (searching)&lt;/div&gt;" style="ellipse;whiteSpace=wrap;html=1;" vertex="1" parent="1">
          <mxGeometry x="466.25" y="505" width="160" height="50" as="geometry" />
        </mxCell>
        <mxCell id="8gyLErTpw2jjx-ygtuql-47" value="&lt;div&gt;Archive inactive opportunities&amp;nbsp;&lt;/div&gt;" style="ellipse;whiteSpace=wrap;html=1;" vertex="1" parent="1">
          <mxGeometry x="513.75" y="35" width="120" height="40" as="geometry" />
        </mxCell>
        <mxCell id="8gyLErTpw2jjx-ygtuql-48" value="" style="edgeStyle=none;html=1;endArrow=none;verticalAlign=bottom;rounded=0;exitX=1;exitY=0.5;exitDx=0;exitDy=0;entryX=0.25;entryY=0.1;entryDx=0;entryDy=0;entryPerimeter=0;" edge="1" parent="1" source="8gyLErTpw2jjx-ygtuql-28" target="8gyLErTpw2jjx-ygtuql-34">
          <mxGeometry width="160" relative="1" as="geometry">
            <mxPoint x="600" y="269.33" as="sourcePoint" />
            <mxPoint x="760" y="269.33" as="targetPoint" />
          </mxGeometry>
        </mxCell>
        <mxCell id="8gyLErTpw2jjx-ygtuql-49" value="" style="edgeStyle=none;html=1;endArrow=none;verticalAlign=bottom;rounded=0;exitX=1;exitY=0.5;exitDx=0;exitDy=0;entryX=0.25;entryY=0.1;entryDx=0;entryDy=0;entryPerimeter=0;" edge="1" parent="1" source="8gyLErTpw2jjx-ygtuql-47" target="8gyLErTpw2jjx-ygtuql-34">
          <mxGeometry width="160" relative="1" as="geometry">
            <mxPoint x="630" y="130" as="sourcePoint" />
            <mxPoint x="765" y="280" as="targetPoint" />
          </mxGeometry>
        </mxCell>
        <mxCell id="8gyLErTpw2jjx-ygtuql-50" value="" style="edgeStyle=none;html=1;endArrow=none;verticalAlign=bottom;rounded=0;exitX=1;exitY=0.5;exitDx=0;exitDy=0;entryX=0.25;entryY=0.1;entryDx=0;entryDy=0;entryPerimeter=0;" edge="1" parent="1" source="8gyLErTpw2jjx-ygtuql-38" target="8gyLErTpw2jjx-ygtuql-34">
          <mxGeometry width="160" relative="1" as="geometry">
            <mxPoint x="630" y="170" as="sourcePoint" />
            <mxPoint x="775" y="290" as="targetPoint" />
          </mxGeometry>
        </mxCell>
        <mxCell id="8gyLErTpw2jjx-ygtuql-51" value="" style="edgeStyle=none;html=1;endArrow=none;verticalAlign=bottom;rounded=0;exitX=1;exitY=0.5;exitDx=0;exitDy=0;entryX=0.25;entryY=0.1;entryDx=0;entryDy=0;entryPerimeter=0;" edge="1" parent="1" source="8gyLErTpw2jjx-ygtuql-39" target="8gyLErTpw2jjx-ygtuql-34">
          <mxGeometry width="160" relative="1" as="geometry">
            <mxPoint x="623" y="220" as="sourcePoint" />
            <mxPoint x="785" y="300" as="targetPoint" />
          </mxGeometry>
        </mxCell>
        <mxCell id="8gyLErTpw2jjx-ygtuql-52" value="" style="edgeStyle=none;html=1;endArrow=none;verticalAlign=bottom;rounded=0;exitX=1;exitY=0.5;exitDx=0;exitDy=0;entryX=0.5;entryY=0.5;entryDx=0;entryDy=0;entryPerimeter=0;" edge="1" parent="1" source="8gyLErTpw2jjx-ygtuql-40" target="8gyLErTpw2jjx-ygtuql-34">
          <mxGeometry width="160" relative="1" as="geometry">
            <mxPoint x="623" y="270" as="sourcePoint" />
            <mxPoint x="795" y="310" as="targetPoint" />
          </mxGeometry>
        </mxCell>
        <mxCell id="8gyLErTpw2jjx-ygtuql-53" value="" style="edgeStyle=none;html=1;endArrow=none;verticalAlign=bottom;rounded=0;exitX=1;exitY=0.5;exitDx=0;exitDy=0;entryX=0.5;entryY=0.5;entryDx=0;entryDy=0;entryPerimeter=0;" edge="1" parent="1" source="8gyLErTpw2jjx-ygtuql-41" target="8gyLErTpw2jjx-ygtuql-34">
          <mxGeometry width="160" relative="1" as="geometry">
            <mxPoint x="623" y="320" as="sourcePoint" />
            <mxPoint x="805" y="320" as="targetPoint" />
          </mxGeometry>
        </mxCell>
        <mxCell id="8gyLErTpw2jjx-ygtuql-55" value="" style="edgeStyle=none;html=1;endArrow=none;verticalAlign=bottom;rounded=0;exitX=1;exitY=0.5;exitDx=0;exitDy=0;entryX=0.5;entryY=0.5;entryDx=0;entryDy=0;entryPerimeter=0;" edge="1" parent="1" source="8gyLErTpw2jjx-ygtuql-42" target="8gyLErTpw2jjx-ygtuql-34">
          <mxGeometry width="160" relative="1" as="geometry">
            <mxPoint x="623" y="370" as="sourcePoint" />
            <mxPoint x="815" y="330" as="targetPoint" />
          </mxGeometry>
        </mxCell>
        <mxCell id="8gyLErTpw2jjx-ygtuql-56" value="" style="edgeStyle=none;html=1;endArrow=none;verticalAlign=bottom;rounded=0;exitX=1;exitY=0.5;exitDx=0;exitDy=0;entryX=0;entryY=1;entryDx=0;entryDy=0;entryPerimeter=0;" edge="1" parent="1" source="8gyLErTpw2jjx-ygtuql-43" target="8gyLErTpw2jjx-ygtuql-34">
          <mxGeometry width="160" relative="1" as="geometry">
            <mxPoint x="623" y="420" as="sourcePoint" />
            <mxPoint x="825" y="340" as="targetPoint" />
          </mxGeometry>
        </mxCell>
        <mxCell id="8gyLErTpw2jjx-ygtuql-57" value="" style="edgeStyle=none;html=1;endArrow=none;verticalAlign=bottom;rounded=0;exitX=1;exitY=0.5;exitDx=0;exitDy=0;entryX=0;entryY=1;entryDx=0;entryDy=0;entryPerimeter=0;" edge="1" parent="1" source="8gyLErTpw2jjx-ygtuql-44" target="8gyLErTpw2jjx-ygtuql-34">
          <mxGeometry width="160" relative="1" as="geometry">
            <mxPoint x="623" y="470" as="sourcePoint" />
            <mxPoint x="835" y="350" as="targetPoint" />
          </mxGeometry>
        </mxCell>
        <mxCell id="8gyLErTpw2jjx-ygtuql-58" value="" style="edgeStyle=none;html=1;endArrow=none;verticalAlign=bottom;rounded=0;exitX=1;exitY=0.5;exitDx=0;exitDy=0;entryX=0;entryY=1;entryDx=0;entryDy=0;entryPerimeter=0;" edge="1" parent="1" source="8gyLErTpw2jjx-ygtuql-45" target="8gyLErTpw2jjx-ygtuql-34">
          <mxGeometry width="160" relative="1" as="geometry">
            <mxPoint x="630" y="525" as="sourcePoint" />
            <mxPoint x="845" y="360" as="targetPoint" />
          </mxGeometry>
        </mxCell>
        <mxCell id="8gyLErTpw2jjx-ygtuql-59" value="" style="edgeStyle=none;html=1;endArrow=none;verticalAlign=bottom;rounded=0;exitX=1;exitY=0.5;exitDx=0;exitDy=0;entryX=0;entryY=1;entryDx=0;entryDy=0;entryPerimeter=0;" edge="1" parent="1" source="8gyLErTpw2jjx-ygtuql-46" target="8gyLErTpw2jjx-ygtuql-34">
          <mxGeometry width="160" relative="1" as="geometry">
            <mxPoint x="636" y="585" as="sourcePoint" />
            <mxPoint x="855" y="370" as="targetPoint" />
          </mxGeometry>
        </mxCell>
      </root>
    </mxGraphModel>
  </diagram>
</mxfile>
